<mxfile host="app.diagrams.net" modified="2023-10-10T13:45:31.552Z" agent="Mozilla/5.0 (Macintosh; Intel Mac OS X 10_15_7) AppleWebKit/537.36 (KHTML, like Gecko) Chrome/117.0.0.0 Safari/537.36" etag="4dmZyIT_OlKfNVfeso_R" version="22.0.4" type="device">
  <diagram name="Page-1" id="PCNE8JEYZxhoawGlr1Lm">
    <mxGraphModel dx="954" dy="585" grid="1" gridSize="10" guides="1" tooltips="1" connect="1" arrows="1" fold="1" page="1" pageScale="1" pageWidth="850" pageHeight="1100" math="0" shadow="0">
      <root>
        <mxCell id="0" />
        <mxCell id="1" parent="0" />
        <mxCell id="au2wwvVtx-mbNgR81eEW-69" value="" style="rounded=0;whiteSpace=wrap;html=1;fillColor=#e1d5e7;strokeColor=#9673a6;" vertex="1" parent="1">
          <mxGeometry x="170" y="340" width="530" height="200" as="geometry" />
        </mxCell>
        <mxCell id="au2wwvVtx-mbNgR81eEW-65" value="" style="rounded=1;whiteSpace=wrap;html=1;fillColor=#fff2cc;strokeColor=#d6b656;" vertex="1" parent="1">
          <mxGeometry x="20" y="410" width="110" height="230" as="geometry" />
        </mxCell>
        <mxCell id="au2wwvVtx-mbNgR81eEW-1" value="" style="rounded=0;whiteSpace=wrap;html=1;fillColor=#f8cecc;strokeColor=#b85450;" vertex="1" parent="1">
          <mxGeometry x="170" y="120" width="530" height="160" as="geometry" />
        </mxCell>
        <mxCell id="au2wwvVtx-mbNgR81eEW-3" value="" style="rounded=0;whiteSpace=wrap;html=1;fillColor=#d5e8d4;strokeColor=#82b366;" vertex="1" parent="1">
          <mxGeometry x="170" y="280" width="530" height="60" as="geometry" />
        </mxCell>
        <mxCell id="au2wwvVtx-mbNgR81eEW-8" value="1" style="rounded=1;whiteSpace=wrap;html=1;" vertex="1" parent="1">
          <mxGeometry x="310" y="170" width="30" height="50" as="geometry" />
        </mxCell>
        <mxCell id="au2wwvVtx-mbNgR81eEW-14" value="Banker" style="text;html=1;strokeColor=none;fillColor=none;align=center;verticalAlign=middle;whiteSpace=wrap;rounded=0;fontSize=20;" vertex="1" parent="1">
          <mxGeometry x="185" y="125" width="60" height="30" as="geometry" />
        </mxCell>
        <mxCell id="au2wwvVtx-mbNgR81eEW-15" value="Player" style="text;html=1;strokeColor=none;fillColor=none;align=center;verticalAlign=middle;whiteSpace=wrap;rounded=0;fontSize=20;" vertex="1" parent="1">
          <mxGeometry x="190" y="360" width="60" height="30" as="geometry" />
        </mxCell>
        <mxCell id="au2wwvVtx-mbNgR81eEW-16" value="1" style="ellipse;whiteSpace=wrap;html=1;aspect=fixed;" vertex="1" parent="1">
          <mxGeometry x="300" y="480" width="30" height="30" as="geometry" />
        </mxCell>
        <mxCell id="au2wwvVtx-mbNgR81eEW-17" value="5" style="ellipse;whiteSpace=wrap;html=1;aspect=fixed;" vertex="1" parent="1">
          <mxGeometry x="340" y="480" width="30" height="30" as="geometry" />
        </mxCell>
        <mxCell id="au2wwvVtx-mbNgR81eEW-18" value="10" style="ellipse;whiteSpace=wrap;html=1;aspect=fixed;" vertex="1" parent="1">
          <mxGeometry x="380" y="480" width="30" height="30" as="geometry" />
        </mxCell>
        <mxCell id="au2wwvVtx-mbNgR81eEW-19" value="25" style="ellipse;whiteSpace=wrap;html=1;aspect=fixed;" vertex="1" parent="1">
          <mxGeometry x="420" y="480" width="30" height="30" as="geometry" />
        </mxCell>
        <mxCell id="au2wwvVtx-mbNgR81eEW-20" value="50" style="ellipse;whiteSpace=wrap;html=1;aspect=fixed;" vertex="1" parent="1">
          <mxGeometry x="460" y="480" width="30" height="30" as="geometry" />
        </mxCell>
        <mxCell id="au2wwvVtx-mbNgR81eEW-21" value="Hit" style="ellipse;whiteSpace=wrap;html=1;aspect=fixed;" vertex="1" parent="1">
          <mxGeometry x="570" y="460" width="50" height="50" as="geometry" />
        </mxCell>
        <mxCell id="au2wwvVtx-mbNgR81eEW-22" value="Stand" style="ellipse;whiteSpace=wrap;html=1;aspect=fixed;" vertex="1" parent="1">
          <mxGeometry x="640" y="460" width="50" height="50" as="geometry" />
        </mxCell>
        <mxCell id="au2wwvVtx-mbNgR81eEW-24" value="Comfirm&lt;br&gt;Bet" style="ellipse;whiteSpace=wrap;html=1;aspect=fixed;" vertex="1" parent="1">
          <mxGeometry x="600" y="400" width="50" height="50" as="geometry" />
        </mxCell>
        <mxCell id="au2wwvVtx-mbNgR81eEW-26" value="3" style="rounded=1;whiteSpace=wrap;html=1;" vertex="1" parent="1">
          <mxGeometry x="410" y="170" width="30" height="50" as="geometry" />
        </mxCell>
        <mxCell id="au2wwvVtx-mbNgR81eEW-27" value="2" style="rounded=1;whiteSpace=wrap;html=1;fontStyle=1" vertex="1" parent="1">
          <mxGeometry x="360" y="170" width="30" height="50" as="geometry" />
        </mxCell>
        <mxCell id="au2wwvVtx-mbNgR81eEW-28" value="4" style="rounded=1;whiteSpace=wrap;html=1;" vertex="1" parent="1">
          <mxGeometry x="460" y="170" width="30" height="50" as="geometry" />
        </mxCell>
        <mxCell id="au2wwvVtx-mbNgR81eEW-29" value="5" style="rounded=1;whiteSpace=wrap;html=1;" vertex="1" parent="1">
          <mxGeometry x="510" y="170" width="30" height="50" as="geometry" />
        </mxCell>
        <mxCell id="au2wwvVtx-mbNgR81eEW-31" value="" style="rounded=0;whiteSpace=wrap;html=1;" vertex="1" parent="1">
          <mxGeometry x="580" y="120" width="120" height="160" as="geometry" />
        </mxCell>
        <mxCell id="au2wwvVtx-mbNgR81eEW-33" value="" style="rounded=0;whiteSpace=wrap;html=1;" vertex="1" parent="1">
          <mxGeometry x="580" y="120" width="60" height="160" as="geometry" />
        </mxCell>
        <mxCell id="au2wwvVtx-mbNgR81eEW-34" value="Chong" style="rounded=0;whiteSpace=wrap;html=1;" vertex="1" parent="1">
          <mxGeometry x="580" y="150" width="60" height="30" as="geometry" />
        </mxCell>
        <mxCell id="au2wwvVtx-mbNgR81eEW-35" value="500" style="rounded=0;whiteSpace=wrap;html=1;" vertex="1" parent="1">
          <mxGeometry x="640" y="150" width="60" height="30" as="geometry" />
        </mxCell>
        <mxCell id="au2wwvVtx-mbNgR81eEW-36" value="Top Winners" style="rounded=0;whiteSpace=wrap;html=1;fillColor=#d5e8d4;strokeColor=#82b366;" vertex="1" parent="1">
          <mxGeometry x="580" y="120" width="120" height="35" as="geometry" />
        </mxCell>
        <mxCell id="au2wwvVtx-mbNgR81eEW-37" value="Hannan" style="rounded=0;whiteSpace=wrap;html=1;" vertex="1" parent="1">
          <mxGeometry x="580" y="180" width="60" height="30" as="geometry" />
        </mxCell>
        <mxCell id="au2wwvVtx-mbNgR81eEW-38" value="400" style="rounded=0;whiteSpace=wrap;html=1;" vertex="1" parent="1">
          <mxGeometry x="640" y="180" width="60" height="30" as="geometry" />
        </mxCell>
        <mxCell id="au2wwvVtx-mbNgR81eEW-39" value="Ertuglur" style="rounded=0;whiteSpace=wrap;html=1;" vertex="1" parent="1">
          <mxGeometry x="580" y="210" width="60" height="30" as="geometry" />
        </mxCell>
        <mxCell id="au2wwvVtx-mbNgR81eEW-40" value="100" style="rounded=0;whiteSpace=wrap;html=1;" vertex="1" parent="1">
          <mxGeometry x="640" y="210" width="60" height="30" as="geometry" />
        </mxCell>
        <mxCell id="au2wwvVtx-mbNgR81eEW-43" value="Display Total&lt;br&gt;Points" style="rounded=1;whiteSpace=wrap;html=1;" vertex="1" parent="1">
          <mxGeometry x="240" y="175" width="50" height="45" as="geometry" />
        </mxCell>
        <mxCell id="au2wwvVtx-mbNgR81eEW-51" value="1" style="rounded=1;whiteSpace=wrap;html=1;" vertex="1" parent="1">
          <mxGeometry x="315" y="400" width="30" height="50" as="geometry" />
        </mxCell>
        <mxCell id="au2wwvVtx-mbNgR81eEW-52" value="3" style="rounded=1;whiteSpace=wrap;html=1;" vertex="1" parent="1">
          <mxGeometry x="415" y="400" width="30" height="50" as="geometry" />
        </mxCell>
        <mxCell id="au2wwvVtx-mbNgR81eEW-53" value="2" style="rounded=1;whiteSpace=wrap;html=1;fontStyle=1" vertex="1" parent="1">
          <mxGeometry x="365" y="400" width="30" height="50" as="geometry" />
        </mxCell>
        <mxCell id="au2wwvVtx-mbNgR81eEW-54" value="4" style="rounded=1;whiteSpace=wrap;html=1;" vertex="1" parent="1">
          <mxGeometry x="465" y="400" width="30" height="50" as="geometry" />
        </mxCell>
        <mxCell id="au2wwvVtx-mbNgR81eEW-55" value="5" style="rounded=1;whiteSpace=wrap;html=1;" vertex="1" parent="1">
          <mxGeometry x="515" y="400" width="30" height="50" as="geometry" />
        </mxCell>
        <mxCell id="au2wwvVtx-mbNgR81eEW-56" value="Display Total&lt;br&gt;Points" style="rounded=1;whiteSpace=wrap;html=1;" vertex="1" parent="1">
          <mxGeometry x="245" y="405" width="50" height="45" as="geometry" />
        </mxCell>
        <mxCell id="au2wwvVtx-mbNgR81eEW-57" value="Show Count Down(When need)" style="ellipse;whiteSpace=wrap;html=1;aspect=fixed;" vertex="1" parent="1">
          <mxGeometry x="380" y="270" width="80" height="80" as="geometry" />
        </mxCell>
        <mxCell id="au2wwvVtx-mbNgR81eEW-58" value="Show BlackJack Label" style="text;html=1;strokeColor=none;fillColor=none;align=center;verticalAlign=middle;whiteSpace=wrap;rounded=0;" vertex="1" parent="1">
          <mxGeometry x="185" y="295" width="125" height="30" as="geometry" />
        </mxCell>
        <mxCell id="au2wwvVtx-mbNgR81eEW-59" value="Menu" style="ellipse;whiteSpace=wrap;html=1;aspect=fixed;" vertex="1" parent="1">
          <mxGeometry x="180" y="460" width="65" height="65" as="geometry" />
        </mxCell>
        <mxCell id="au2wwvVtx-mbNgR81eEW-61" value="Game Rule" style="rounded=1;whiteSpace=wrap;html=1;" vertex="1" parent="1">
          <mxGeometry x="40" y="430" width="70" height="40" as="geometry" />
        </mxCell>
        <mxCell id="au2wwvVtx-mbNgR81eEW-62" value="Player Game&lt;br&gt;History" style="rounded=1;whiteSpace=wrap;html=1;" vertex="1" parent="1">
          <mxGeometry x="40" y="480" width="70" height="40" as="geometry" />
        </mxCell>
        <mxCell id="au2wwvVtx-mbNgR81eEW-63" value="Sound" style="rounded=1;whiteSpace=wrap;html=1;" vertex="1" parent="1">
          <mxGeometry x="40" y="530" width="70" height="40" as="geometry" />
        </mxCell>
        <mxCell id="au2wwvVtx-mbNgR81eEW-64" value="Language" style="rounded=1;whiteSpace=wrap;html=1;" vertex="1" parent="1">
          <mxGeometry x="40" y="580" width="70" height="40" as="geometry" />
        </mxCell>
        <mxCell id="au2wwvVtx-mbNgR81eEW-66" value="Menu Detail(Phase 2)" style="text;html=1;strokeColor=none;fillColor=none;align=center;verticalAlign=middle;whiteSpace=wrap;rounded=0;" vertex="1" parent="1">
          <mxGeometry x="30" y="370" width="100" height="30" as="geometry" />
        </mxCell>
        <mxCell id="au2wwvVtx-mbNgR81eEW-67" value="" style="shape=flexArrow;endArrow=classic;html=1;rounded=0;entryX=1;entryY=0.335;entryDx=0;entryDy=0;entryPerimeter=0;" edge="1" parent="1" source="au2wwvVtx-mbNgR81eEW-59" target="au2wwvVtx-mbNgR81eEW-65">
          <mxGeometry width="50" height="50" relative="1" as="geometry">
            <mxPoint x="290" y="640" as="sourcePoint" />
            <mxPoint x="340" y="590" as="targetPoint" />
          </mxGeometry>
        </mxCell>
        <mxCell id="au2wwvVtx-mbNgR81eEW-70" value="Single Player UI Design" style="text;html=1;strokeColor=none;fillColor=none;align=center;verticalAlign=middle;whiteSpace=wrap;rounded=0;fontStyle=1;fontSize=22;" vertex="1" parent="1">
          <mxGeometry x="290" y="70" width="250" height="30" as="geometry" />
        </mxCell>
      </root>
    </mxGraphModel>
  </diagram>
</mxfile>
